# xmcd
# 
# Track frame offsets:
#     150
#     21634
#     39653
#     61705
#     85824
#     102513
#     120130
#     142909
#     159837
#     178588
#     200521
#     221886
#     246711
# 
# Disc length: 3741
# 
# Revision: 2
# Processed by: cddbd v1.5.2PL0 Copyright (c) Steve Scherf et al.
# Submitted via: fre:ac v1.0.17
# 
DISCID=b50e9b0d
DTITLE=Lizz Wright - The Orchard
DYEAR=2008
DGENRE=Blues
TTITLE0=Coming Home
TTITLE1=My Heart
TTITLE2=I Idolize You
TTITLE3=Hey Mann
TTITLE4=Another Angel
TTITLE5=When I Fall
TTITLE6=Leave Me Standing Alone
TTITLE7=Speak Your Heart
TTITLE8=This Is
TTITLE9=Song For Mia
TTITLE10=Thank You
TTITLE11=Strange
TTITLE12=It Makes No Difference
EXTD=YEAR: 2008
EXTT0=
EXTT1=
EXTT2=
EXTT3=
EXTT4=
EXTT5=
EXTT6=
EXTT7=
EXTT8=
EXTT9=
EXTT10=
EXTT11=
EXTT12=
PLAYORDER=
